<svg xmlns="http://www.w3.org/2000/svg" viewBox="0 0 497.83 512"><defs><style>.a{fill:#004ca8;}</style></defs><title>api2</title><path class="a" d="M493.13,310.18,475.47,300a220.84,220.84,0,0,0,.07-88l17.59-10.15a23.54,23.54,0,0,0,8.62-32.16l-48.09-83.3a23.55,23.55,0,0,0-32.16-8.62l-17.6,10.16a225.32,225.32,0,0,0-76.25-44.12V23.55A23.57,23.57,0,0,0,304.09,0H207.91a23.57,23.57,0,0,0-23.55,23.55V43.78A225.33,225.33,0,0,0,108.21,88L90.51,77.73a23.55,23.55,0,0,0-32.16,8.62l-48.09,83.3a23.54,23.54,0,0,0,8.62,32.16L36.53,212a220.86,220.86,0,0,0-.07,88L18.87,310.18a23.57,23.57,0,0,0-8.62,32.16l48.09,83.3a23.57,23.57,0,0,0,32.16,8.62l17.6-10.16a225.34,225.34,0,0,0,76.25,44.12v20.23A23.57,23.57,0,0,0,207.91,512h96.19a23.57,23.57,0,0,0,23.55-23.55V468.22A225.34,225.34,0,0,0,403.79,424l17.7,10.22a23.57,23.57,0,0,0,32.16-8.62l48.09-83.3A23.57,23.57,0,0,0,493.13,310.18Zm-4.4,24.65-48.09,83.3A8.52,8.52,0,0,1,429,421.25l-22.44-13a7.51,7.51,0,0,0-8.86,1,209.9,209.9,0,0,1-79.81,46.29,7.52,7.52,0,0,0-5.29,7.18v25.7a8.53,8.53,0,0,1-8.52,8.52H207.91a8.53,8.53,0,0,1-8.52-8.52v-25.7a7.52,7.52,0,0,0-5.29-7.18,209.93,209.93,0,0,1-79.91-46.23,7.51,7.51,0,0,0-8.86-1L83,421.25a8.53,8.53,0,0,1-11.63-3.12l-48.09-83.3a8.53,8.53,0,0,1,3.12-11.63L48.7,310.32a7.51,7.51,0,0,0,3.57-8.16,206.52,206.52,0,0,1,.08-92.27,7.52,7.52,0,0,0-3.57-8.16L26.38,188.8a8.52,8.52,0,0,1-3.12-11.63l48.09-83.3A8.52,8.52,0,0,1,83,90.75l22.44,13a7.51,7.51,0,0,0,8.86-1A209.9,209.9,0,0,1,194.1,56.42a7.52,7.52,0,0,0,5.29-7.18V23.55A8.53,8.53,0,0,1,207.91,15h96.19a8.53,8.53,0,0,1,8.52,8.52v25.7a7.52,7.52,0,0,0,5.29,7.18,209.92,209.92,0,0,1,79.91,46.23,7.51,7.51,0,0,0,8.86,1L429,90.75a8.52,8.52,0,0,1,11.63,3.12l48.09,83.3a8.52,8.52,0,0,1-3.12,11.63L463.3,201.68a7.51,7.51,0,0,0-3.57,8.16,206.52,206.52,0,0,1-.08,92.27,7.52,7.52,0,0,0,3.57,8.16l22.39,12.93A8.53,8.53,0,0,1,488.73,334.83Z" transform="translate(-7.09)"/><path class="a" d="M256,104.2c-83.7,0-151.8,68.1-151.8,151.8S172.3,407.8,256,407.8,407.8,339.7,407.8,256,339.7,104.2,256,104.2Zm0,288.56c-75.41,0-136.77-61.35-136.77-136.77S180.59,119.23,256,119.23,392.77,180.59,392.77,256,331.41,392.77,256,392.77Z" transform="translate(-7.09)"/><path class="a" d="M309.76,87.47c5.22,1.66,10.41,3.59,15.45,5.74a7.51,7.51,0,1,0,5.89-13.83C325.63,77.05,320,75,314.32,73.15a7.51,7.51,0,1,0-4.56,14.32Z" transform="translate(-7.09)"/><path class="a" d="M100.65,340.57a7.51,7.51,0,1,0-13.19,7.2,192.55,192.55,0,0,0,10.26,16.71A7.51,7.51,0,1,0,110.1,356,177.56,177.56,0,0,1,100.65,340.57Z" transform="translate(-7.09)"/><path class="a" d="M240.61,432.19A177,177,0,0,1,133,383a7.51,7.51,0,0,0-10.46,10.8,192.11,192.11,0,0,0,116.79,53.31l.65,0a7.51,7.51,0,0,0,.64-15Z" transform="translate(-7.09)"/><path class="a" d="M364.14,97.48a7.51,7.51,0,0,0-8.48,12.41,177.07,177.07,0,0,1,71.11,100,7.51,7.51,0,1,0,14.51-3.91A192.1,192.1,0,0,0,364.14,97.48Z" transform="translate(-7.09)"/></svg>